<?xml version="1.0" standalone="no"?>
<!DOCTYPE svg PUBLIC "-//W3C//DTD SVG 20010904//EN"
 "http://www.w3.org/TR/2001/REC-SVG-20010904/DTD/svg10.dtd">
<svg version="1.0" xmlns="http://www.w3.org/2000/svg"
 width="512.000000pt" height="512.000000pt" viewBox="0 0 512.000000 512.000000"
 preserveAspectRatio="xMidYMid meet">

<g transform="translate(0.000000,512.000000) scale(0.100000,-0.100000)"
fill="#000000" stroke="none">
<path d="M2165 5065 c-82 -7 -172 -18 -200 -24 -147 -34 -210 -52 -335 -96
-106 -37 -319 -140 -425 -205 -117 -71 -190 -124 -299 -218 -119 -104 -129
-109 -158 -93 -13 7 -50 46 -83 86 -49 61 -62 72 -77 64 -35 -19 -21 -60 42
-133 83 -96 83 -100 -7 -205 -59 -69 -193 -261 -234 -336 -9 -16 -26 -46 -38
-65 -11 -19 -25 -44 -30 -55 -5 -11 -26 -56 -46 -99 -20 -44 -46 -105 -57
-135 -10 -31 -23 -65 -27 -76 -23 -58 -61 -190 -76 -260 -9 -44 -21 -96 -25
-115 -9 -35 -28 -153 -52 -322 -16 -119 1 -346 45 -598 46 -260 107 -483 168
-618 11 -24 27 -62 36 -85 9 -23 27 -59 40 -79 13 -21 23 -41 23 -44 0 -4 12
-23 26 -42 25 -32 29 -34 71 -28 25 3 115 40 206 85 89 43 248 120 352 170
105 51 204 100 220 108 44 24 49 26 190 96 72 35 160 85 197 110 88 61 128 80
246 121 55 19 141 55 191 80 51 25 97 46 104 45 11 0 78 -76 140 -161 l28 -38
1 -664 c0 -365 -3 -669 -6 -675 -5 -8 -94 -11 -282 -11 -280 0 -357 -8 -381
-38 -19 -23 -16 -30 18 -48 27 -14 91 -16 528 -15 627 0 886 8 903 28 8 11 9
19 1 31 -11 18 -81 24 -483 40 l-195 7 -8 270 c-10 314 -10 366 -2 779 7 342
4 327 81 413 16 17 56 64 89 104 33 40 76 91 95 113 20 23 56 66 80 96 25 30
62 73 82 95 20 22 60 70 89 105 28 36 66 81 83 101 43 50 115 135 151 180 48
61 274 328 344 407 44 50 67 70 74 63 10 -10 -37 -90 -81 -141 -8 -8 -48 -63
-90 -122 -42 -59 -113 -158 -158 -220 -106 -147 -117 -165 -106 -172 5 -3 25
3 44 12 19 10 62 26 94 36 67 21 125 48 556 261 l306 152 -28 16 c-15 9 -38
17 -50 17 -12 0 -36 6 -53 14 -18 8 -45 18 -62 22 -29 8 -29 9 14 12 23 2 57
-2 74 -7 16 -6 80 -11 141 -11 245 0 446 81 616 250 67 66 170 204 170 228 0
4 5 13 11 19 37 37 88 246 95 390 14 258 -74 508 -248 706 -55 63 -195 172
-248 193 -8 3 -28 12 -45 19 -16 7 -48 19 -70 26 -22 7 -45 16 -50 20 -6 4
-56 13 -112 20 -81 10 -123 10 -208 0 -59 -6 -114 -16 -123 -20 -10 -5 -55
-23 -102 -41 -100 -39 -141 -64 -233 -142 -38 -32 -74 -58 -81 -58 -7 0 -73
31 -147 68 -298 151 -549 220 -874 241 -180 12 -166 13 -370 -4z m2123 -125
c132 -17 278 -80 386 -167 82 -66 101 -86 160 -168 71 -100 135 -242 136 -301
0 -11 6 -26 12 -32 17 -17 17 -303 -1 -363 -49 -170 -82 -242 -158 -344 -102
-137 -253 -245 -403 -288 -249 -71 -500 -23 -708 134 l-23 17 88 109 c48 59
97 119 110 133 12 14 83 97 157 185 137 162 156 196 123 224 -10 7 -133 12
-393 13 l-379 3 -3 45 c-10 123 67 327 177 468 31 41 66 87 78 103 44 60 162
138 288 189 109 44 222 57 353 40z m-2279 -339 c12 -16 34 -31 51 -34 40 -9
47 -30 20 -67 -20 -27 -21 -34 -10 -61 11 -26 11 -33 -3 -47 -15 -14 -21 -14
-53 -3 -28 10 -41 10 -65 0 -39 -16 -53 -2 -51 49 1 26 -5 48 -18 65 -25 32
-17 56 22 64 18 4 34 16 44 34 18 37 37 37 63 0z m2011 -620 c0 -8 -31 -51
-55 -77 -5 -6 -41 -49 -80 -94 -38 -46 -88 -104 -110 -130 -22 -26 -62 -75
-90 -109 -35 -43 -56 -61 -70 -59 -26 4 -85 84 -135 183 -40 79 -96 268 -85
286 8 12 625 12 625 0z m-3296 -671 c47 0 53 -14 16 -42 -28 -20 -30 -26 -25
-60 9 -53 -1 -63 -36 -37 -28 19 -31 20 -54 5 -48 -31 -66 -16 -46 37 8 21 5
29 -19 52 -35 33 -31 45 16 45 28 0 36 5 45 27 21 56 32 59 51 14 15 -37 21
-41 52 -41z m2591 60 c4 -6 -9 -29 -29 -50 -20 -22 -36 -44 -36 -49 0 -15 28
-21 91 -21 32 0 59 -4 59 -10 0 -5 -28 -42 -63 -82 -79 -92 -123 -145 -327
-389 -91 -108 -232 -277 -315 -375 -82 -97 -186 -221 -230 -273 -44 -53 -87
-97 -95 -98 -8 -1 -37 25 -65 58 -27 32 -75 88 -105 122 -30 35 -84 99 -120
142 -36 43 -94 113 -130 154 -36 42 -158 186 -270 321 -112 135 -235 280 -272
324 -37 43 -68 85 -68 92 0 11 26 14 128 14 l127 -1 65 -81 c36 -44 95 -117
132 -162 37 -45 113 -137 168 -206 299 -369 292 -361 325 -358 25 3 30 8 33
33 2 25 -13 48 -85 136 -119 144 -375 457 -445 545 -32 40 -58 77 -58 83 0 8
174 11 614 11 606 0 614 0 640 21 14 11 40 40 57 65 l30 44 119 0 c71 0 121
-4 125 -10z m-2145 -97 c17 -14 57 -58 88 -96 32 -39 67 -83 80 -98 15 -19 19
-29 10 -29 -23 1 -241 219 -234 235 8 21 20 19 56 -12z m2735 -83 c3 -5 -1
-10 -9 -10 -9 0 -16 5 -16 10 0 6 4 10 9 10 6 0 13 -4 16 -10z m-2953 -489
c11 -20 26 -31 45 -33 l28 -3 -22 -20 c-15 -13 -23 -31 -23 -52 0 -31 -1 -32
-31 -21 -22 8 -34 7 -42 -1 -19 -19 -28 -12 -21 15 4 14 3 29 -2 33 -5 3 -15
16 -22 29 -11 20 -10 22 11 22 28 0 47 17 47 42 0 26 13 22 32 -11z"/>
</g>
</svg>
